<svg xmlns="http://www.w3.org/2000/svg" fill="#9c141c" fill-rule="evenodd" overflow="visible" viewBox="0 0 759.26 759.85"><path d="M642.76 7.86c27.52-13.87 20.69-7.64 36.4 5.24 21.39 17.53-47.4 113.7-85.56 101.27 3.61-48.28 34.67-99.21 49.16-106.51zm-254 8.19c10.22 28.98 21.56 101.56-24.58 98.32-17.04-25.7-34.93-106.54 24.58-98.32zm-85.34 112.66c-9.34 33.24-52.36 26.41-65.55 0-28.78-57.62 82.51-60.35 65.55 0zm216.43 395.33c-24.02-.56-30.43-18.73-40.96-32.77-15.6 3.52-20.58 17.65-40.97 16.38-21.54-2.43-6.45 31.79-32.77 24.58 8.41-27.53-25.48-12.75-40.97-16.39-12.18 6.94-11.86 26.38-16.39 40.97-14.61-19.4 16.19-66.48-40.97-57.36-1.64-31.13-34.45-31.09-32.77-65.55-50.24 12.57-80.85 44.78-131.09 57.36 26.67-44.34 87.72-54.3 131.09-81.93-5.64-32.95 7.85-46.77 8.19-73.74-16.7-18.8-68.04-2.96-98.32-8.19 21.31-16.93 59.1-17.37 98.32-16.39 23.04-10.23 27.08-33.58 16.39-57.35 10.48.45 11.35 10.5 24.58 8.19 2.72-32.76-14.61-45.48-8.19-81.93 21.86 5.45 30 24.62 40.97 40.97 10.3-3.36 16.75-10.57 16.39-24.58 6.38 1.81 9.53 6.86 8.19 16.39 84.08-14.18 16.6-172.28 114.7-131.09 16.98 7.13 16.28 16.49 16.39 32.77-3.44 15.66-2.96 35.26-24.58 32.77-7.12 8.61-11.86 18.68-24.58 32.78 51.4 11.42 94.8 30.83 106.52 81.93 32.95 5.64 46.77-7.85 73.74-8.19-13.63 21.88-56.54 14.47-73.74 32.77-1.53 68.44 5.81 95.4-32.78 122.9 1.4 12.26-2.92 30.24 8.2 32.77-11.42 13.16-40.43 8.73-49.16 24.58 8.42 18.89 28.21 26.42 24.58 57.35z"/><path d="M560.83 147.15c30.29 24.84-24.88 27.6 0 0zm188.44 73.73c17.29 2.51 8.66 15.92 0 16.39s-23.26 1.41-24.58-8.2c1.38-9.54 7.29-10.7 24.58-8.19zm-40.96 16.39c1.56-9.3 8.22-4.55 8.19 0-1.56 9.3-8.22 4.55-8.19 0zM183.93 327.4c.83 9.9-11.91 5.04 0 0zm-98.32 8.19c3.01 24.86-26.69 17.01-40.97 24.58-1.19-23.03 20.07-23.63 40.97-24.58zm557.15 24.58c.22-9.09 45.96-3.2 65.54-8.19-2.61 21.73 46.9 10.46 32.77 24.58-14.8 15.48-98.53-7.3-98.31-16.39zM199.9 398.46c-12.07 32.98-66.24 39.39-68.1-9.29-1.85-48.68 80.18-23.69 68.1 9.29zm442.86 60.03c17.85 3.16 22.15 16.09 24.58 32.77 31.99-16.23 70.1 20.02 65.54 40.97s-37.74 31.99-49.16 8.19c3.7 27.47-35.02 31.94-49.16 32.77-6.72.39-26.33-3.59-24.58-24.58-24.31-3-42.55.22-49.16-32.77s34.36-65.77 81.94-57.35zm-499.8 32.78c.83 9.9-11.91 5.03 0 0zm155.68 16.38c.46-5 1.23-9.7 8.19-8.19-.46 5-1.22 9.7-8.19 8.19zm-8.2 8.2c.46-5 1.23-9.7 8.19-8.19-.46 4.99-1.22 9.7-8.19 8.19zM102 540.43c-3.2 13.44-27.53 6.36-32.77-8.19-5.24-14.56 35.97-5.25 32.77 8.19zm188.44-24.58c.83 9.9-11.91 5.04 0 0zm229.41 8.19c9.9-.83 5.04 11.91 0 0zM3.68 573.2c-3.2-5.69-6.36-5.93 0-16.39s67.65-29.84 57.35 16.39c-5.49 29.78-54.16 5.68-57.35 0zm401.47-16.39c2.82-9.89 21.8-6.63 24.58 0 7.43 17.72-30 18.99-24.58 0zm262.19 16.39c11.99 7.12 27.77 24.11 24.58 32.77s-21.39 16.6-32.77 0c-11.39-16.61 5.62-21.69 8.19-32.77zm81.93 49.16c5 5.24 4.31 7.29 0 8.19-9.64-1.29-23.26 1.41-24.58-8.19 11.69-3.19 19.59-5.24 24.58 0zM347.8 646.94c14.55 8.66 18.9 32.99 0 32.77s-14.55-41.43 0-32.77zm229.41 0c12.93 14.38 37.62 17 40.97 40.97-30.24 2.93-34.24-20.38-40.97-40.97zm-401.47 32.77c-.83-9.9 11.91-5.03 0 0zm0 0c-1 20.85-19.33 40.51-32.77 32.77-13.44-7.73 7.12-36.57 32.77-32.77zm-49.16 73.74c-7.3 8.65-15.92 8.41-24.58 0s-11.98-46.72 16.39-40.97c20.85.83 15.49 32.32 8.2 40.97z"/></svg>